HIERARCHY
ROOT Pelvis
{
	OFFSET 0.000000 0.000000 0.000000
	CHANNELS 6 Xposition Yposition Zposition Xrotation Yrotation Zrotation
	JOINT LeftUpLeg_virtual
	{
		OFFSET 0.000000 0.000000 0.000000
		CHANNELS 3 Xrotation Yrotation Zrotation
		JOINT LeftUpLeg
		{
			OFFSET 18.735201 -5.666702 -4.541200
			CHANNELS 3 Xrotation Yrotation Zrotation
			JOINT LeftLeg
			{
				OFFSET -0.021200 -31.938179 0.493100
				CHANNELS 3 Xrotation Yrotation Zrotation
				JOINT LeftFoot
				{
					OFFSET 0.021200 -31.938179 -4.336299
					CHANNELS 3 Xrotation Yrotation Zrotation
					JOINT LeftToeBase
					{
						OFFSET 0.943001 -26.722000 15.023500
						CHANNELS 3 Xrotation Yrotation Zrotation
						End Site
						{
							OFFSET 0 0 0
						}
					}
				}
			}
		}
	}
	JOINT RightUpLeg_virtual
	{
		OFFSET 0.000000 0.000000 0.000000
		CHANNELS 3 Xrotation Yrotation Zrotation
		JOINT RightUpLeg
		{
			OFFSET -18.735201 -5.666702 -4.541200
			CHANNELS 3 Xrotation Yrotation Zrotation
			JOINT RightLeg
			{
				OFFSET 0.018946 -31.938133 0.493100
				CHANNELS 3 Xrotation Yrotation Zrotation
				JOINT RightFoot
				{
					OFFSET -0.018946 -31.938126 -4.336299
					CHANNELS 3 Xrotation Yrotation Zrotation
					JOINT RightToeBase
					{
						OFFSET -0.943001 -26.722004 15.023500
						CHANNELS 3 Xrotation Yrotation Zrotation
						End Site
						{
							OFFSET 0 0 0
						}
					}
				}
			}
		}
	}
	JOINT Hips_virtual
	{
		OFFSET 0.000000 0.000000 0.000000
		CHANNELS 3 Xrotation Yrotation Zrotation
		JOINT Hips
		{
			OFFSET -0.000000 -0.000000 -0.000000
			CHANNELS 3 Xrotation Yrotation Zrotation
			JOINT Spine
			{
				OFFSET 0.000000 10.199997 -0.299500
				CHANNELS 3 Xrotation Yrotation Zrotation
				JOINT Spine1
				{
					OFFSET 0.000000 11.900002 -1.516600
					CHANNELS 3 Xrotation Yrotation Zrotation
					JOINT Spine2
					{
						OFFSET 0.000000 13.600006 -2.842500
						CHANNELS 3 Xrotation Yrotation Zrotation
						JOINT Neck_virtual
						{
							OFFSET 0.000000 0.000000 0.000000
							CHANNELS 3 Xrotation Yrotation Zrotation
							JOINT Neck
							{
								OFFSET 0.000000 9.624100 -2.890100
								CHANNELS 3 Xrotation Yrotation Zrotation
								JOINT Head
								{
									OFFSET 0.000000 14.068802 -1.351900
									CHANNELS 3 Xrotation Yrotation Zrotation
									End Site
									{
										OFFSET 0 0 0
									}
								}
							}
						}
						JOINT LeftShoulder_virtual
						{
							OFFSET 0.000000 0.000000 0.000000
							CHANNELS 3 Xrotation Yrotation Zrotation
							JOINT LeftShoulder
							{
								OFFSET 15.263000 10.923401 -0.547700
								CHANNELS 3 Xrotation Yrotation Zrotation
								JOINT LeftArm
								{
									OFFSET 25.438599 -2.830597 -13.032500
									CHANNELS 3 Xrotation Yrotation Zrotation
									JOINT LeftForeArm
									{
										OFFSET 29.960503 0.000000 0.000000
										CHANNELS 3 Xrotation Yrotation Zrotation
										JOINT LeftHand
										{
											OFFSET 27.849251 0.000000 0.000000
											CHANNELS 3 Xrotation Yrotation Zrotation
											End Site
											{
												OFFSET 0 0 0
											}
										}
									}
								}
							}
						}
						JOINT RightShoulder_virtual
						{
							OFFSET 0.000000 0.000000 0.000000
							CHANNELS 3 Xrotation Yrotation Zrotation
							JOINT RightShoulder
							{
								OFFSET -15.263000 10.923401 -0.547700
								CHANNELS 3 Xrotation Yrotation Zrotation
								JOINT RightArm
								{
									OFFSET -25.438599 -2.830597 -13.032500
									CHANNELS 3 Xrotation Yrotation Zrotation
									JOINT RightForeArm
									{
										OFFSET -29.960503 0.000000 0.000000
										CHANNELS 3 Xrotation Yrotation Zrotation
										JOINT RightHand
										{
											OFFSET -27.849251 0.000000 0.000000
											CHANNELS 3 Xrotation Yrotation Zrotation
											End Site
											{
												OFFSET 0 0 0
											}
										}
									}
								}
							}
						}
					}
				}
			}
		}
	}
}
MOTION
Frames: 6
Frame Time: 0.03333333
-3.960222 93.769394 -3.496696 0.000000 0.000000 0.000000 -9.386994 -0.881953 3.155035 -6.932207 8.693858 -4.141256 24.080225 -0.260244 -0.245899 -8.503273 3.770673 3.524062 0.000000 0.000000 0.000000 -9.386994 -0.881953 3.155035 -12.378456 -13.443517 -17.038756 34.229845 1.137479 0.425620 -11.934736 -14.945538 5.404333 0.000000 0.000000 0.000000 -9.386994 -0.881953 3.155035 0.000000 0.000000 0.000000 7.155576 1.522476 -4.137263 14.244013 3.269501 -3.077380 0.000000 0.000000 0.000000 14.269168 3.169304 -3.056462 6.878159 0.379432 -0.877896 0.000000 0.000000 0.000000 14.269168 3.169304 -3.056462 -1.697382 -21.196983 -25.775450 -1.040215 -44.501787 -31.977921 4.422147 -24.531587 1.305874 0.000000 0.000000 0.000000 14.269168 3.169304 -3.056462 -1.956284 23.252501 25.557185 -0.642661 20.673871 37.850125 28.848025 40.014387 -13.261175 0.000000 0.000000 0.000000 
-3.607570 93.957138 -3.384567 0.000000 0.000000 0.000000 -9.896067 -1.179411 3.337211 -5.262061 9.121466 -4.750577 22.458799 -0.236667 -0.235966 -7.997465 3.603880 3.831343 0.000000 0.000000 0.000000 -9.896067 -1.179411 3.337211 -11.623591 -13.357021 -17.567672 33.547157 1.159120 0.427407 -11.463459 -14.681719 5.799322 0.000000 0.000000 0.000000 -9.896067 -1.179411 3.337211 0.000000 0.000000 0.000000 6.787738 1.577851 -4.255888 13.499547 3.300433 -3.157293 0.000000 0.000000 0.000000 13.525419 3.199131 -3.135810 6.661952 0.421720 -0.803055 0.000000 0.000000 0.000000 13.525419 3.199131 -3.135810 -1.205560 -20.666498 -24.364069 1.602681 -41.933605 -31.598210 4.490919 -26.563581 0.875683 0.000000 0.000000 0.000000 13.525419 3.199131 -3.135810 -1.348469 22.309546 23.910460 2.405173 20.579676 39.044824 30.735042 42.386098 -15.654476 0.000000 0.000000 0.000000 
-3.254032 94.048187 -3.315022 0.000000 0.000000 0.000000 -10.190369 -1.383580 3.505377 -4.163060 9.496675 -5.310291 21.364459 -0.220625 -0.228806 -7.664219 3.421355 4.146737 0.000000 0.000000 0.000000 -10.190369 -1.383580 3.505377 -11.275083 -13.240072 -18.113166 33.201850 1.195629 0.431808 -11.127795 -14.499529 6.210719 0.000000 0.000000 0.000000 -10.190369 -1.383580 3.505377 0.000001 0.000000 0.000000 6.433320 1.587372 -4.366511 12.785436 3.259337 -3.237265 0.000000 0.000000 0.000000 12.811443 3.157067 -3.215350 6.428063 0.462317 -0.763219 0.000000 0.000000 0.000000 12.811443 3.157067 -3.215350 -0.606961 -19.983600 -22.751681 3.591668 -39.451135 -31.646937 5.236553 -28.036356 0.947487 0.000000 0.000000 0.000000 12.811443 3.157067 -3.215350 -0.713644 21.402183 22.136616 4.746091 20.510846 40.324867 31.595670 44.303670 -17.134797 0.000000 0.000000 0.000000 
-2.919507 94.062302 -3.254181 0.000000 0.000000 0.000000 -10.283046 -1.540780 3.659587 -3.541567 9.852299 -5.802761 20.729877 -0.207803 -0.224040 -7.516449 3.238549 4.450640 0.000000 0.000000 0.000000 -10.283046 -1.540780 3.659587 -11.291098 -13.066939 -18.638053 33.192414 1.221044 0.435547 -10.958607 -14.344229 6.526552 0.000000 0.000000 0.000000 -10.283046 -1.540780 3.659587 0.000000 0.000000 0.000000 6.086646 1.588352 -4.475903 12.086296 3.177757 -3.317953 0.000000 0.000000 0.000000 12.112680 3.083689 -3.298397 6.169785 0.498001 -0.717297 0.000000 0.000000 0.000000 12.112680 3.083689 -3.298397 0.051152 -19.230215 -20.982112 4.852668 -36.960496 -32.152371 6.739162 -28.723852 1.369275 0.000000 0.000000 0.000000 12.112680 3.083689 -3.298397 -0.076874 20.530174 20.303501 6.411392 20.396589 41.725189 31.669384 45.382413 -17.619822 0.000000 0.000000 0.000000 
-2.620491 94.025406 -3.171001 0.000000 0.000000 0.000000 -10.227226 -1.699574 3.811267 -3.217509 10.199089 -6.240610 20.397049 -0.199515 -0.221301 -7.520016 3.080201 4.724313 0.000000 0.000000 0.000000 -10.227226 -1.699574 3.811267 -11.536742 -12.823176 -19.135840 33.394885 1.249527 0.440268 -10.910303 -14.239750 6.819175 0.000000 0.000000 0.000000 -10.227226 -1.699574 3.811267 0.000000 0.000000 0.000000 5.738264 1.573273 -4.595792 11.386201 3.091536 -3.410622 0.000000 0.000000 0.000000 11.412662 3.001242 -3.392075 5.870540 0.524244 -0.625367 0.000000 0.000000 0.000000 11.412662 3.001242 -3.392075 0.749354 -18.438155 -19.040172 5.216742 -34.576234 -33.163690 8.558920 -28.595866 1.875522 0.000000 0.000000 0.000000 11.412662 3.001242 -3.392075 0.530487 19.695711 18.487717 7.345198 20.182926 43.228633 30.746380 45.758856 -16.939863 0.000000 0.000000 0.000000 
-2.362011 93.979828 -3.083336 0.000000 0.000000 0.000000 -10.118515 -1.822222 3.933902 -3.038488 10.481297 -6.603656 20.198032 -0.194841 -0.219739 -7.571060 2.949111 4.958776 0.000000 0.000000 0.000000 -10.118515 -1.822222 3.933902 -11.786047 -12.627363 -19.559941 33.557662 1.286989 0.446028 -10.877163 -14.158110 7.123128 0.000000 0.000000 0.000000 -10.118515 -1.822222 3.933902 0.000000 0.000000 0.000000 5.400508 1.552263 -4.711392 10.707921 3.001653 -3.485508 0.000000 0.000000 0.000000 10.734435 2.915114 -3.467963 5.568354 0.536539 -0.524593 0.000000 0.000000 0.000000 10.734435 2.915114 -3.467963 1.434092 -17.670099 -17.056533 5.145489 -32.111690 -34.387779 10.769975 -28.265319 2.445278 0.000000 0.000000 0.000000 10.734435 2.915114 -3.467963 1.094252 18.911721 16.755149 7.613260 19.725260 44.846083 30.069672 45.972091 -16.293042 0.000000 0.000000 0.000000 
